# xmcd
#
# Track frame offsets: 
#        150
#        10167
#        20962
#        33257
#        43272
#        53580
#        63412
#        74765
#        82985
#        92915
#        106605
#        114590
#        122997
#        136375
#        147970
#        159627
#        178195
#        192210
#
# Disc length: 2795 seconds
#
# Revision: 1
# Processed by: cddbd v1.5.2PL0 Copyright (c) Steve Scherf et al.
# Submitted via: ExactAudioCopyFreeDBPlugin 1.0
#
DISCID=020ae912
DTITLE=Johnny Cash - The Essential Johnny Cash
DYEAR=2002
DGENRE=Country
TTITLE0=Hey Porter
TTITLE1=Cry, Cry, Cry
TTITLE2=I Walk The Line
TTITLE3=Get Rhythm
TTITLE4=There You Go
TTITLE5=Ballard Of A Teenage Queen
TTITLE6=Big River
TTITLE7=Guess Things Happen That Way
TTITLE8=All Over Again
TTITLE9=Don't Take Your Guns To Town
TTITLE10=Five Feet High And Rising
TTITLE11=The Rebel - Johnny Yuma
TTITLE12=Tennessee Flat-Top Box
TTITLE13=I Still Miss Someone
TTITLE14=Ring Of Fire
TTITLE15=The Ballad Of Ira Hayes
TTITLE16=Orange Blossom Special
TTITLE17=Johnny Cash With The Carter Family - Where You There (When Th
TTITLE17=ey Crucified My Lord)
EXTD=
EXTT0=
EXTT1=
EXTT2=
EXTT3=
EXTT4=
EXTT5=
EXTT6=
EXTT7=
EXTT8=
EXTT9=
EXTT10=
EXTT11=
EXTT12=
EXTT13=
EXTT14=
EXTT15=
EXTT16=
EXTT17=
PLAYORDER=
